<svg version="1.1" id="Layer_1" xmlns="http://www.w3.org/2000/svg" xmlns:xlink="http://www.w3.org/1999/xlink" x="0px" y="0px"
	 width="100%" viewBox="0 0 2000 1530" enable-background="new 0 0 2000 1530" xml:space="preserve">
<path fill="#4C6971" opacity="1.000000" stroke="none" 
	d="
M1.000000,552.000000 
	C1.000000,368.000000 1.000000,184.500000 1.000000,1.000000 
	C667.666687,1.000000 1334.333374,1.000000 2001.000000,1.000000 
	C2001.000000,511.000000 2001.000000,1021.000000 2001.000000,1531.000000 
	C1334.333374,1531.000000 667.666687,1531.000000 1.000000,1531.000000 
	C1.000000,1204.833374 1.000000,878.666687 1.000000,552.000000 
M2000.000977,80.500000 
	C2000.000977,54.749493 2000.000977,28.998987 2000.000977,3.417952 
	C1333.554321,3.417952 667.864990,3.417952 2.289062,3.417952 
	C2.289062,512.080078 2.289062,1020.323914 2.289062,1528.670410 
	C668.268860,1528.670410 1333.958252,1528.670410 2000.000977,1528.670410 
	C2000.000977,1046.060547 2000.000977,563.780273 2000.000977,80.500000 
z"/>
<path fill="#F9CC0B" opacity="1.000000" stroke="none" 
	d="
M2000.000977,81.000000 
	C2000.000977,563.780273 2000.000977,1046.060547 2000.000977,1528.670410 
	C1333.958252,1528.670410 668.268860,1528.670410 2.289062,1528.670410 
	C2.289062,1020.323914 2.289062,512.080078 2.289062,3.417952 
	C667.864990,3.417952 1333.554321,3.417952 2000.000977,3.417952 
	C2000.000977,28.998987 2000.000977,54.749493 2000.000977,81.000000 
M433.992096,202.148361 
	C488.287781,202.148361 542.583435,202.148361 596.885681,202.148361 
	C596.885681,184.240204 596.885681,167.125290 596.926392,149.475998 
	C596.615662,149.389481 596.304932,149.302948 595.064453,149.096100 
	C446.442841,149.096100 297.821228,149.096100 148.927307,149.096100 
	C148.927307,166.940430 148.927307,184.318375 148.927307,202.039597 
	C189.016983,202.039597 228.804871,202.039597 268.635986,202.039597 
	C269.360748,203.859940 270.021088,205.379929 270.577972,206.936905 
	C323.091736,353.753540 375.590271,500.575623 428.106354,647.391418 
	C468.526306,760.391052 508.966949,873.383240 549.399780,986.378296 
	C573.600708,1054.011108 597.569214,1121.728149 622.094360,1189.243286 
	C636.906921,1230.020630 652.143677,1270.657471 668.065186,1311.012207 
	C675.761353,1330.519043 685.874695,1349.005005 699.627930,1365.156006 
	C706.232605,1372.912109 713.776062,1379.581665 724.341431,1380.854614 
	C733.686340,1381.980469 743.145508,1382.123657 752.527588,1382.989868 
	C756.858459,1383.389648 758.760559,1381.995117 760.278015,1377.692261 
	C805.609436,1249.149536 851.137207,1120.676147 896.601501,992.180359 
	C931.472717,893.624023 966.296570,795.050842 1001.150269,696.488281 
	C1008.273376,676.344910 1015.436279,656.215576 1023.037964,634.791382 
	C1024.281738,637.989563 1025.138672,640.032959 1025.878174,642.117920 
	C1054.491943,722.782410 1083.102661,803.447937 1111.695801,884.119690 
	C1128.513550,931.568298 1145.292358,979.030640 1162.105225,1026.480835 
	C1174.433472,1061.274658 1186.690918,1096.093872 1199.153931,1130.839233 
	C1218.689453,1185.301025 1238.108643,1239.807007 1258.126099,1294.091919 
	C1265.778687,1314.844971 1275.046997,1334.975220 1287.514404,1353.454224 
	C1293.957031,1363.003296 1302.287354,1369.685059 1313.929443,1371.062012 
	C1322.757202,1372.105957 1331.701782,1372.140625 1340.544556,1373.089233 
	C1346.051270,1373.679932 1348.285156,1371.472412 1350.034424,1366.386353 
	C1420.158203,1162.489258 1490.433838,958.644348 1560.682373,754.790161 
	C1581.145996,695.406616 1601.586426,636.015015 1622.038940,576.627686 
	C1642.112549,518.340454 1662.178955,460.050781 1682.265503,401.768097 
	C1698.843994,353.664124 1715.447144,305.568726 1732.039551,257.469574 
	C1738.381104,239.086075 1744.722778,220.702652 1751.200195,201.925507 
	C1785.269653,201.925507 1819.188721,201.925507 1853.118652,201.925507 
	C1853.118652,184.154114 1853.118652,166.878738 1853.118652,149.074646 
	C1850.911133,149.074646 1848.955811,149.074646 1847.000366,149.074646 
	C1741.168335,149.074646 1635.336304,149.073807 1529.504272,149.081543 
	C1527.674561,149.081680 1525.844971,149.185135 1523.516724,149.154251 
	C1523.414917,149.438705 1523.313110,149.723160 1523.058594,150.932907 
	C1523.058594,167.875839 1523.058594,184.818771 1523.058594,202.290604 
	C1577.470215,202.290604 1631.331177,202.290604 1685.891968,202.290604 
	C1579.294678,523.057129 1472.927734,843.130737 1366.560791,1163.204346 
	C1366.181152,1163.164551 1365.801514,1163.124756 1365.421875,1163.084961 
	C1256.121216,842.958252 1146.820557,522.831482 1037.261963,201.949280 
	C1092.959473,201.949280 1147.692505,201.949280 1202.397217,201.949280 
	C1202.397217,184.054184 1202.397217,166.676117 1202.397217,149.074677 
	C1200.489624,149.074677 1198.996948,149.074692 1197.504150,149.074692 
	C1084.177856,149.074677 970.851440,149.074020 857.525085,149.081619 
	C856.028870,149.081711 854.532715,149.186279 852.492371,149.186874 
	C852.529968,149.653473 852.567566,150.120056 852.757935,151.301834 
	C852.883606,151.786102 852.973572,152.283020 853.139893,152.752899 
	C898.254089,280.186340 943.357483,407.623596 988.566650,535.023315 
	C989.984436,539.018738 990.111755,542.470154 988.711670,546.514893 
	C922.681458,737.267883 856.749451,928.054871 790.800171,1118.835938 
	C786.124207,1132.362915 781.403381,1145.874268 776.290344,1160.581055 
	C772.726013,1150.698364 769.584534,1142.013184 766.460022,1133.321899 
	C693.122620,929.318665 619.788513,725.314270 546.450256,521.311401 
	C518.716858,444.166534 490.954651,367.032074 463.246216,289.878235 
	C453.019012,261.400604 442.908783,232.880966 432.917725,203.681808 
	C432.968048,203.205399 433.018402,202.729004 433.992096,202.148361 
z"/>
<path fill="#0C1D36" opacity="1.000000" stroke="none" 
	d="
M853.036499,149.242096 
	C854.532715,149.186279 856.028870,149.081711 857.525085,149.081619 
	C970.851440,149.074020 1084.177856,149.074677 1197.504150,149.074692 
	C1198.996948,149.074692 1200.489624,149.074677 1202.397217,149.074677 
	C1202.397217,166.676117 1202.397217,184.054184 1202.397217,201.949280 
	C1147.692505,201.949280 1092.959473,201.949280 1037.261963,201.949280 
	C1146.820557,522.831482 1256.121216,842.958252 1365.421875,1163.084961 
	C1365.801514,1163.124756 1366.181152,1163.164551 1366.560791,1163.204346 
	C1472.927734,843.130737 1579.294678,523.057129 1685.891968,202.290604 
	C1631.331177,202.290604 1577.470215,202.290604 1523.058594,202.290604 
	C1523.058594,184.818771 1523.058594,167.875839 1523.301025,150.378555 
	C1523.754883,149.673355 1523.912109,149.478745 1524.015259,149.240387 
	C1525.844971,149.185135 1527.674561,149.081680 1529.504272,149.081543 
	C1635.336304,149.073807 1741.168335,149.074646 1847.000366,149.074646 
	C1848.955811,149.074646 1850.911133,149.074646 1853.118652,149.074646 
	C1853.118652,166.878738 1853.118652,184.154114 1853.118652,201.925507 
	C1819.188721,201.925507 1785.269653,201.925507 1751.200195,201.925507 
	C1744.722778,220.702652 1738.381104,239.086075 1732.039551,257.469574 
	C1715.447144,305.568726 1698.843994,353.664124 1682.265503,401.768097 
	C1662.178955,460.050781 1642.112549,518.340454 1622.038940,576.627686 
	C1601.586426,636.015015 1581.145996,695.406616 1560.682373,754.790161 
	C1490.433838,958.644348 1420.158203,1162.489258 1350.034424,1366.386353 
	C1348.285156,1371.472412 1346.051270,1373.679932 1340.544556,1373.089233 
	C1331.701782,1372.140625 1322.757202,1372.105957 1313.929443,1371.062012 
	C1302.287354,1369.685059 1293.957031,1363.003296 1287.514404,1353.454224 
	C1275.046997,1334.975220 1265.778687,1314.844971 1258.126099,1294.091919 
	C1238.108643,1239.807007 1218.689453,1185.301025 1199.153931,1130.839233 
	C1186.690918,1096.093872 1174.433472,1061.274658 1162.105225,1026.480835 
	C1145.292358,979.030640 1128.513550,931.568298 1111.695801,884.119690 
	C1083.102661,803.447937 1054.491943,722.782410 1025.878174,642.117920 
	C1025.138672,640.032959 1024.281738,637.989563 1023.037964,634.791382 
	C1015.436279,656.215576 1008.273376,676.344910 1001.150269,696.488281 
	C966.296570,795.050842 931.472717,893.624023 896.601501,992.180359 
	C851.137207,1120.676147 805.609436,1249.149536 760.278015,1377.692261 
	C758.760559,1381.995117 756.858459,1383.389648 752.527588,1382.989868 
	C743.145508,1382.123657 733.686340,1381.980469 724.341431,1380.854614 
	C713.776062,1379.581665 706.232605,1372.912109 699.627930,1365.156006 
	C685.874695,1349.005005 675.761353,1330.519043 668.065186,1311.012207 
	C652.143677,1270.657471 636.906921,1230.020630 622.094360,1189.243286 
	C597.569214,1121.728149 573.600708,1054.011108 549.399780,986.378296 
	C508.966949,873.383240 468.526306,760.391052 428.106354,647.391418 
	C375.590271,500.575623 323.091736,353.753540 270.577972,206.936905 
	C270.021088,205.379929 269.360748,203.859940 268.635986,202.039597 
	C228.804871,202.039597 189.016983,202.039597 148.927307,202.039597 
	C148.927307,184.318375 148.927307,166.940430 148.927307,149.096100 
	C297.821228,149.096100 446.442841,149.096100 595.650391,149.317337 
	C596.423828,149.735657 596.640259,149.892929 596.885681,150.010361 
	C596.885681,167.125290 596.885681,184.240204 596.885681,202.148361 
	C542.583435,202.148361 488.287781,202.148361 433.215790,202.180908 
	C432.541412,202.935791 432.643311,203.658127 432.745239,204.380478 
	C442.908783,232.880966 453.019012,261.400604 463.246216,289.878235 
	C490.954651,367.032074 518.716858,444.166534 546.450256,521.311401 
	C619.788513,725.314270 693.122620,929.318665 766.460022,1133.321899 
	C769.584534,1142.013184 772.726013,1150.698364 776.290344,1160.581055 
	C781.403381,1145.874268 786.124207,1132.362915 790.800171,1118.835938 
	C856.749451,928.054871 922.681458,737.267883 988.711670,546.514893 
	C990.111755,542.470154 989.984436,539.018738 988.566650,535.023315 
	C943.357483,407.623596 898.254089,280.186340 853.139893,152.752899 
	C852.973572,152.283020 852.883606,151.786102 852.819336,150.617218 
	C852.932678,149.702438 852.984558,149.472275 853.036499,149.242096 
z"/>
<path fill="#C8A914" opacity="1.000000" stroke="none" 
	d="
M432.831482,204.031143 
	C432.643311,203.658127 432.541412,202.935791 432.754089,202.233017 
	C433.018402,202.729004 432.968048,203.205399 432.831482,204.031143 
z"/>
<path fill="#2B3430" opacity="1.000000" stroke="none" 
	d="
M596.906006,149.743179 
	C596.640259,149.892929 596.423828,149.735657 596.115295,149.377502 
	C596.304932,149.302948 596.615662,149.389481 596.906006,149.743179 
z"/>
<path fill="#2B3430" opacity="1.000000" stroke="none" 
	d="
M852.764404,149.214478 
	C852.984558,149.472275 852.932678,149.702438 852.742981,150.259628 
	C852.567566,150.120056 852.529968,149.653473 852.764404,149.214478 
z"/>
<path fill="#2B3430" opacity="1.000000" stroke="none" 
	d="
M1523.765991,149.197311 
	C1523.912109,149.478745 1523.754883,149.673355 1523.377441,149.915924 
	C1523.313110,149.723160 1523.414917,149.438705 1523.765991,149.197311 
z"/>
</svg>